# xmcd
#
# Track frame offsets:
#	150
#	14794
#	27571
#	40941
#	51407
#	64383
#	79180
#	90715
#	113630
#	124437
#	139471
#	153925
#
# Disc length: 2251
#
# Revision: 3
# Processed by: cddbd v1.5.1PL0 Copyright (c) Steve Scherf et al.
# Submitted via: CDex 1.51
# Normalized: r1:DSETVAR1,TSWAP
#
DISCID=b108c90c
DTITLE=Various Artist - Jazz Standard Songs 50's vol.1
DYEAR=1900
DGENRE=Jazz
TTITLE0=BILLIE HOLIDAY - AS TIME GOES BY
TTITLE1=FRANK SINATRA - ALL OF ME
TTITLE2=ANDREWS SISTERS - BEER BARREL POLKA
TTITLE3=XAVIER CUGAT - DARK EYES
TTITLE4=LENA HORNE - HONEY SUCKLE ROSE ROOM
TTITLE5=SARAH VAUGHAM - IT MIGHT AS WELL BE SPRING
TTITLE6=NAT KING COLE - KATUSHA
TTITLE7=GLENN MILLER AND ARMY FORCE BAND - POINCIANA
TTITLE8=XAVIER CUGAT - RAIN IN SPAIN
TTITLE9=FRANK SINATRA - THE SONG IS YOU
TTITLE10=DINAH SHORE - BLUES IN THE NIGHT
TTITLE11=FRANK SINATRA - NIGHT AND DAY
EXTD=
EXTT0=
EXTT1=
EXTT2=
EXTT3=
EXTT4=
EXTT5=
EXTT6=
EXTT7=
EXTT8=
EXTT9=
EXTT10=
EXTT11=
PLAYORDER=
